<?xml version="1.0" standalone="no"?>
<!DOCTYPE svg PUBLIC "-//W3C//DTD SVG 20010904//EN"
 "http://www.w3.org/TR/2001/REC-SVG-20010904/DTD/svg10.dtd">
<svg version="1.0" xmlns="http://www.w3.org/2000/svg"
 width="256.000000pt" height="256.000000pt" viewBox="0 0 256.000000 256.000000"
 preserveAspectRatio="xMidYMid meet">
<metadata>
Created by potrace 1.11, written by Peter Selinger 2001-2013
</metadata>
<g transform="translate(0.000000,256.000000) scale(0.100000,-0.100000)"
fill="#000000" stroke="none">
<path d="M845 1881 c-463 -237 -535 -283 -535 -341 0 -77 80 -73 310 15 179
68 290 109 347 126 57 17 69 4 138 -156 42 -95 55 -128 53 -130 -9 -6 -266
-162 -280 -170 -10 -5 -86 -50 -169 -100 -131 -78 -147 -90 -122 -94 24 -3 25
-4 8 -11 -18 -6 -17 -8 12 -23 24 -13 52 -16 125 -13 120 5 127 6 353 66 105
28 198 53 209 55 10 2 57 13 105 24 85 20 146 30 188 31 12 0 27 9 33 20 14
25 0 52 -134 263 -56 89 -151 239 -210 334 -60 95 -119 179 -132 188 -54 35
-77 29 -299 -84z"/>
<path d="M1913 1821 c-88 -23 -171 -99 -199 -184 -60 -182 86 -374 274 -362
76 4 127 27 179 77 171 167 68 452 -171 473 -28 2 -65 0 -83 -4z"/>
<path d="M10 995 c0 -17 85 -127 143 -184 108 -107 224 -172 377 -212 76 -20
108 -23 290 -22 277 1 310 7 740 138 l125 39 265 0 c233 1 329 -4 445 -19 24
-3 102 -13 134 -17 24 -3 15 7 -41 46 -143 98 -293 163 -442 191 -78 15 -255
17 -338 4 -29 -5 -66 -11 -83 -13 -16 -3 -120 -28 -230 -55 -353 -87 -468
-106 -635 -105 -86 1 -232 12 -252 19 -7 2 -24 7 -38 9 -58 11 -79 17 -155 42
-82 27 -176 70 -259 119 -25 15 -46 24 -46 20z"/>
</g>
</svg>
